Coordinates
version=1
nRows=38
nColumns=28
inDegrees=yes

Units are S.I. units (second, meters, Newtons, ...)
If the header above contains a line with 'inDegrees', this indicates whether rotational values are in degrees (yes) or radians (no).

endheader
time	pelvis_tilt	pelvis_list	pelvis_rotation	pelvis_tx	pelvis_ty	pelvis_tz	hip_flexion_r	hip_adduction_r	hip_rotation_r	knee_angle_r	knee_angle_r_ie	knee_angle_r_vv	ankle_angle_r	subtalar_angle_r	mtp_angle_r	hip_flexion_l	hip_adduction_l	hip_rotation_l	knee_angle_l	knee_angle_l_ie	knee_angle_l_vv	ankle_angle_l	subtalar_angle_l	mtp_angle_l	lumbar_extension	lumbar_bending	lumbar_rotation
9.97	3.90231665	0.80555584	3.99185030000001	-0.21615006	0.9296522	-0.72633719	10.34716222	2.37585227	-7.87650815	-33.80171371	-10.52105017	-7.53917792	11.42373133	8.15327333	0	-5.27944821	-2.87163742	-5.36539678	-0.44530605	14.64607275	-5.17617928	6.67459983	5.84755347	0	-21.59614487	-0.95134547	-17.49344471
9.975	3.7469257	0.87066815	3.87796796000001	-0.21946495	0.9291864	-0.72570866	10.0699091	2.3441055	-7.83161947	-34.37527588	-10.47200858	-7.65053441	11.7914992	8.63317423	0	-4.99979147	-2.81608296	-5.25244834	-0.27261286	14.82293925	-5.23602321	6.43982156	5.67864623	0	-21.40426376	-1.06499223	-17.46280537
9.98	3.64535945	0.95767321	3.75236103	-0.22279652	0.92878531	-0.72506037	9.71095262	2.28982989	-7.8392265	-34.88563268	-10.3447144	-7.78878315	12.13254387	8.85525024	0	-4.76832066	-2.74553333	-5.11813518	-0.11937416	15.08053949	-5.29312692	6.21952154	5.62985537	0	-21.29488837	-1.21688609	-17.37489018
9.985	3.49143607	1.02525943	3.65272942999999	-0.22615276	0.92825378	-0.7244016	9.40433485	2.24296746	-7.83645978	-35.36357145	-10.31192006	-7.91411499	12.51364057	9.43506617	0	-4.45284779	-2.70252085	-4.9574699	0.00303423	15.27999607	-5.35871688	5.97934372	5.43467372	0	-21.11550306	-1.33139031	-17.31910617
9.99	3.3923496	1.10395393	3.56324308000001	-0.2295082	0.92777697	-0.72372638	9.00234308	2.17910256	-7.80216631	-35.78088699	-10.23907174	-7.98231565	12.87765256	9.74479676	0	-4.18535056	-2.65824383	-4.80377882	0.11415159	15.44864981	-5.41952619	5.73082597	5.28843389	0	-21.00248091	-1.45452458	-17.21409429
9.995	3.31184504	1.18652265	3.45425252000001	-0.232854	0.92734108	-0.72301029	8.57016728	2.09202764	-7.73718034	-36.17025269	-10.16930175	-8.00640218	13.22956132	10.05328214	0	-3.93087385	-2.60545295	-4.68378307	0.20699854	15.66906638	-5.46678902	5.51497981	5.21594483	0	-20.91255691	-1.58452279	-17.0979462
10	3.24982099	1.29948042	3.35588193000001	-0.23616046	0.92690284	-0.72229899	8.0765596	2.00592264	-7.66971188	-36.44392582	-10.14806725	-8.10123121	13.56261216	10.33260668	0	-3.68189623	-2.52016787	-4.57362537	0.27124907	15.88661586	-5.51273992	5.32882181	5.1580418	0	-20.83734119	-1.75439945	-16.96884289
10.005	3.21376398	1.41391963	3.25459932999999	-0.23950099	0.92652326	-0.72153466	7.56130735	1.88409445	-7.6528799	-36.71587358	-10.08655244	-8.17309154	13.90922687	10.74945772	0	-3.44365024	-2.43765343	-4.48945591	0.30163864	16.06428245	-5.54953201	5.12710662	5.12417751	0	-20.80352722	-1.91337622	-16.84519367
10.01	3.17518713	1.52186772	3.15354273	-0.24283977	0.92608347	-0.72080272	7.03346609	1.76450568	-7.56937975	-36.927529	-10.11193345	-8.22887103	14.21281326	11.32415867	0	-3.18822854	-2.36010921	-4.43962494	0.32388261	16.13042008	-5.58098114	4.93836584	4.94983192	0	-20.7658707	-2.04832603	-16.71341627
10.015	3.08401863	1.55926691	3.02382062000001	-0.24625985	0.92565675	-0.71991565	6.54728427	1.70880683	-7.51439771	-37.08967008	-9.93139242	-8.24622444	14.4146289	11.43189498	0	-2.84216554	-2.38208035	-4.42448177	0.27630022	16.19982461	-5.65221784	4.81470297	4.83665381	0	-20.66178366	-2.13511073	-16.51548747
10.02	3.09690712	1.70331352	2.92061082000001	-0.2495727	0.92523529	-0.71910456	5.92557549	1.57076929	-7.31550899	-37.220269	-9.95361979	-8.26438971	14.69204751	11.74574738	0	-2.62160396	-2.27627987	-4.4302247	0.25625843	16.14917403	-5.67747231	4.59339953	4.58353093	0	-20.68624249	-2.31602613	-16.36118492
10.025	3.04356734	1.80506923	2.8093887	-0.2529724	0.92480785	-0.71832252	5.38061048	1.44408038	-7.27363792	-37.31222351	-9.75327049	-8.32570923	14.84057141	11.83241074	0	-2.29035964	-2.2006715	-4.46302136	0.1750822	16.13921257	-5.68119284	4.48487032	4.46104443	0	-20.632531	-2.4468131	-16.18872535
10.03	3.02530675	1.94122074	2.70213090999999	-0.25636848	0.92437571	-0.71751875	4.78928216	1.28418811	-7.13323053	-37.38828649	-9.62130767	-8.34373367	15.01386278	11.918236	0	-1.98930172	-2.09485084	-4.51097882	0.07557773	16.09991315	-5.68743644	4.33066012	4.33233658	0	-20.62641922	-2.60977268	-16.01074257
10.035	3.02037516	2.07622733	2.58048199999999	-0.2597275	0.92396536	-0.71667285	4.16494352	1.1295145	-6.95098309	-37.39946003	-9.48684413	-8.35868169	15.17218101	11.97675144	0	-1.70912598	-1.99151234	-4.59697928	-0.0138757	16.04096999	-5.66004866	4.16136084	4.22348048	0	-20.62408666	-2.77351168	-15.82233222
10.04	3.0202736	2.21893879	2.43939305000001	-0.26310315	0.92354261	-0.71577289	3.53755343	0.96251386	-6.74709753	-37.39230259	-9.33373212	-8.36911738	15.29628482	11.99983667	0	-1.42334407	-1.87408736	-4.7299172	-0.12493572	16.04725476	-5.64104065	4.00467231	4.16193257	0	-20.6222835	-2.94593231	-15.63005396
10.045	3.03784019	2.3652118	2.29081482000001	-0.26648385	0.92308477	-0.7148177	2.88622283	0.78093585	-6.49146864	-37.35478489	-9.20481142	-8.32920776	15.45598409	11.95244256	0	-1.14993086	-1.76267593	-4.89353272	-0.24542941	16.00772899	-5.62212662	3.8434275	4.0910745	0	-20.62871322	-3.12369278	-15.39036579
10.05	3.02971417	2.50858933	2.15072205000001	-0.26994299	0.92260754	-0.7138855	2.26243738	0.60250545	-6.25424689	-37.28259376	-8.99490825	-8.3308981	15.54732216	11.89488882	0	-0.82428472	-1.64876574	-5.01145883	-0.39890271	16.0022902	-5.59246189	3.71450507	4.04725454	0	-20.63999547	-3.29418274	-15.20855442
10.055	3.05344051	2.5807679	1.99177560000001	-0.27336763	0.92216685	-0.71288404	1.58849056	0.50508101	-5.97393991	-37.12858018	-8.8112296	-8.30936985	15.62441185	11.69120093	0	-0.53723587	-1.6400774	-5.18557956	-0.54992645	15.8912812	-5.59604139	3.56353001	3.91580074	0	-20.65073532	-3.39049137	-14.91380053
10.06	3.05096984	2.68437332	1.85027882	-0.27689506	0.92174012	-0.71196577	0.94763907	0.33786257	-5.69086931	-36.97872207	-8.55068807	-8.24437964	15.69641161	11.5377571	0	-0.19337598	-1.56441347	-5.27771092	-0.72692037	15.89149767	-5.54644925	3.41679915	3.85405241	0	-20.66892625	-3.50309322	-14.72765404
10.065	3.10379687	2.76341957	1.67808597000001	-0.28029166	0.92130826	-0.71088692	0.22117642	0.22386279	-5.38206811	-36.72225693	-8.35374075	-8.22007537	15.76937377	11.3477368	0	0.06041307	-1.54815445	-5.21559581	-0.87566657	16.05252491	-5.54464045	3.29582019	3.74144749	0	-20.70496984	-3.60703024	-14.44775168
10.07	3.12839226	2.88918301	1.52758079	-0.28380383	0.92083233	-0.70983502	-0.4629263	0.04522897	-5.17609057	-36.44848113	-8.08345963	-8.24080094	15.83713936	11.10549135	0	0.39165294	-1.4606405	-5.39779	-1.07887331	15.90787169	-5.47550707	3.12070891	3.63643185	0	-20.73706235	-3.75428662	-14.2331889
10.075	3.18242593	2.94686662	1.38266540000001	-0.28734524	0.92039743	-0.70880023	-1.18954352	-0.06439233	-4.88515131	-36.09921211	-7.88269677	-8.20576747	15.85186356	10.81752026	0	0.70406441	-1.45962466	-5.46809165	-1.30122886	15.89695525	-5.44557464	2.99843909	3.43924597	0	-20.78922835	-3.80606032	-13.99187651
10.08	3.18376527	3.03866996	1.25023802999999	-0.29094221	0.91989686	-0.70774753	-1.85188207	-0.22408564	-4.60954627	-35.74669513	-7.6482576	-8.17084343	15.91493132	10.58426771	0	1.09231738	-1.42166924	-5.5215991	-1.546583	15.84739029	-5.39590493	2.8521153	3.28737378	0	-20.7930303	-3.89794146	-13.78898943
10.085	3.18583543	3.11529132	1.13472419999999	-0.29454111	0.91942815	-0.70664688	-2.50801584	-0.36982642	-4.36127311	-35.32732205	-7.46352084	-8.16982545	15.89650206	10.48553412	0	1.49324358	-1.39884328	-5.54698574	-1.80922781	15.86253277	-5.3375182	2.71060277	3.20669625	0	-20.8044999	-3.97248251	-13.57426
10.09	3.1619029	3.18750989	1.01709316	-0.29826042	0.91883549	-0.70552696	-3.1333714	-0.49847951	-4.1104454	-34.88476544	-7.27459022	-8.17027765	15.98727248	10.28324997	0	1.95011309	-1.39139878	-5.50706937	-2.10913018	15.8822026	-5.28434021	2.6026294	3.06492407	0	-20.79148827	-4.04129326	-13.36004115
10.095	3.16155918	3.23348465	0.88231927999999	-0.30194982	0.91825945	-0.7043348	-3.78597623	-0.61325553	-3.84272668	-34.41886841	-7.00109174	-8.13612167	15.95072326	9.86028045	0	2.38805918	-1.43868116	-5.49912687	-2.43809603	15.89919696	-5.26930391	2.46768694	2.8259065	0	-20.79381397	-4.07838905	-13.1514654
10.1	3.14635113	3.31880709	0.766717150000005	-0.30567944	0.91765277	-0.70316149	-4.42062332	-0.77527895	-3.60633775	-33.91799451	-6.75431704	-8.10780165	15.99099791	9.55481491	0	2.86160609	-1.43060268	-5.44332914	-2.79087451	15.94924161	-5.22934347	2.34434199	2.69140515	0	-20.78385134	-4.15667319	-12.95250512
10.105	3.11325516	3.37085935	0.68067825	-0.30940563	0.91694483	-0.70198257	-5.03404821	-0.89697639	-3.41615725	-33.36816379	-6.59072372	-8.10866599	16.05177692	9.40025962	0	3.37628375	-1.4641934	-5.3181358	-3.18562548	16.02881701	-5.19119829	2.28372047	2.60976971	0	-20.7526738	-4.19038544	-12.74985863
10.11	3.12463612	3.42597159	0.577177309999996	-0.31313772	0.91628582	-0.70075374	-5.70183153	-1.03087844	-3.16465013	-32.79133263	-6.38684563	-8.05611836	16.09048008	9.0614302	0	3.8404243	-1.49401386	-5.20122337	-3.57534096	16.17381714	-5.15452793	2.20697035	2.52050146	0	-20.76889333	-4.23408172	-12.52440446
10.115	3.14302187	3.50356981	0.456145679999992	-0.31685783	0.915598	-0.69942823	-6.36924714	-1.1903398	-2.98227927	-32.17583384	-6.14242231	-8.04723843	16.08925634	8.67152062	0	4.29907929	-1.49466223	-5.14718284	-3.97295246	16.30917668	-5.10331507	2.13787455	2.46120502	0	-20.78570672	-4.31040187	-12.29778485
10.12	3.19709423	3.56277492	0.323901260000014	-0.32057477	0.91486843	-0.69804689	-7.07619421	-1.31864578	-2.84755899	-31.53319172	-5.79867494	-8.1001731	16.01424865	8.18545542	0	4.71281635	-1.52154986	-5.12309025	-4.36865835	16.42169941	-5.04654917	2.09129962	2.44156007	0	-20.83340652	-4.34097048	-12.16232293
10.125	3.23372702	3.61837396	0.211264209999996	-0.32432633	0.91410683	-0.69665712	-7.7640309	-1.46525123	-2.68070029	-30.84454596	-5.56438836	-8.07729926	16.04664588	7.8566529	0	5.14151154	-1.55326197	-5.06152794	-4.7468353	16.53616382	-4.99250129	2.0461004	2.40701454	0	-20.87343686	-4.38333464	-11.95203032
10.13	3.28318091	3.65711564	0.086345730000005	-0.32808214	0.91327893	-0.6952831	-8.45218333	-1.60970443	-2.50586797	-30.15147486	-5.30612145	-8.04495273	16.08606721	7.49059099	0	5.53254194	-1.58631871	-5.1340404	-5.06936694	16.45972185	-4.87776921	1.98356764	2.36391078	0	-20.92882294	-4.40515379	-11.72627904
10.135	3.3230212	3.71752897	-0.0440816199999858	-0.33187946	0.91246048	-0.69374894	-9.13229462	-1.76923034	-2.33946925	-29.39738291	-5.05650043	-8.01702022	16.10925464	7.13271504	0	5.93262473	-1.61133773	-5.07823481	-5.36909865	16.57200769	-4.8548645	1.85786819	2.11229091	0	-20.96289361	-4.45411173	-11.55797681
10.14	3.37249161	3.7370435	-0.20020298	-0.33568517	0.91156548	-0.69230071	-9.81654123	-1.93201553	-2.09877765	-28.62937888	-4.80209434	-7.90473835	16.21015667	6.76483949	0	6.27276076	-1.65212137	-5.27123358	-5.57503533	16.40218456	-4.72417598	1.75555357	1.95478045	0	-21.00744081	-4.45798466	-11.33256546
10.145	3.40417165	3.83047941	-0.338967359999998	-0.33960464	0.91072729	-0.69072985	-10.46307763	-2.16121092	-1.86176597	-27.83338392	-4.6435386	-7.78355405	16.35302866	6.53356039	0	6.63802445	-1.64501813	-5.25654938	-5.80397623	16.42876361	-4.67596093	1.59720909	1.76373007	0	-21.06044199	-4.55146966	-11.14819378
10.15	3.42027327	3.89168189	-0.514659039999998	-0.34354543	0.90979762	-0.68913808	-11.07817307	-2.36922522	-1.64039446	-27.01882673	-4.39129102	-7.68472924	16.55008891	6.29984923	0	6.95719146	-1.65719494	-5.39675517	-5.89988083	16.39872572	-4.55945082	1.42139235	1.66324234	0	-21.0791816	-4.60908558	-10.94414552
10.155	3.47184389	3.90424623	-0.698799000000008	-0.34751945	0.90883516	-0.68756126	-11.73809958	-2.52196091	-1.36333639	-26.16398231	-4.13857231	-7.55554481	16.77423876	6.0106969	0	7.20016331	-1.69687676	-5.71748509	-5.89598829	16.19118729	-4.41120892	1.24577311	1.4745182	0	-21.12741396	-4.60345878	-10.72192465
